<?xml version="1.0" encoding="UTF-8"?>
<svg id="Layer_1" xmlns="http://www.w3.org/2000/svg" version="1.1" viewBox="0 0 34.7 34.7">
  <!-- Generator: Adobe Illustrator 29.0.1, SVG Export Plug-In . SVG Version: 2.1.0 Build 192)  -->
  <defs>
    <style>
      .st0 {
        fill: #f0eae6;
      }

      .st1 {
        fill: #31485e;
      }
    </style>
  </defs>
  <path class="st1" d="M17.4,34.7c9.6,0,17.4-7.8,17.4-17.4S26.9,0,17.4,0,0,7.8,0,17.4h0c0,9.6,7.8,17.4,17.4,17.4"/>
  <path class="st0" d="M14.1,10.7c-1.8,0-3.2,1.4-3.2,3.2v7c0,1.7,1.4,3.1,3.2,3.1h6.6c1.8,0,3.2-1.4,3.2-3.2v-7c0-1.8-1.4-3.2-3.2-3.2h-6.3c0,0-.3.1-.3.1ZM20.6,25.8h-6.6c-2.8,0-5-2.2-5-5v-7c0-2.8,2.2-5,5-5h6.6c2.8,0,5,2.2,5,5v7c0,2.8-2.2,5-5,5"/>
  <path class="st0" d="M17.3,14.8c-.6,0-1.2.2-1.6.7-.5.5-.8,1.1-.8,1.8-.1,1.4.9,2.6,2.3,2.7,1.4.1,2.6-.9,2.7-2.3v-.4c0-.6-.2-1.3-.6-1.8-.5-.5-1.3-.8-2-.7h0M17.3,22.1c-2.6,0-4.7-2.1-4.7-4.7s.5-2.5,1.4-3.4,2.1-1.3,3.3-1.3,2.6.5,3.5,1.4c.8.9,1.2,2.1,1.2,3.3s-.5,2.4-1.4,3.3c-.9.8-2,1.4-3.2,1.4"/>
  <path class="st0" d="M22.8,12.9c0,.6-.4,1-1,1s-1-.4-1-1,.4-1,1-1,1,.4,1,1"/>
</svg>