<?xml version="1.0" encoding="UTF-8"?>
<svg id="Layer_1" xmlns="http://www.w3.org/2000/svg" version="1.1" viewBox="0 0 34.7 34.7">
  <!-- Generator: Adobe Illustrator 29.0.1, SVG Export Plug-In . SVG Version: 2.1.0 Build 192)  -->
  <defs>
    <style>
      .st0 {
        fill: #f0eae6;
      }

      .st1 {
        fill: #31485e;
      }
    </style>
  </defs>
  <path class="st1" d="M17.4,34.7c9.6,0,17.4-7.8,17.4-17.4S26.9,0,17.4,0,0,7.8,0,17.4h0c0,9.6,7.8,17.4,17.4,17.4"/>
  <rect class="st0" x="10.2" y="13.7" width="3.5" height="10.3"/>
  <path class="st0" d="M12,12.2c1,0,1.8-.8,1.8-1.7s-.8-1.8-1.7-1.8-1.8.8-1.8,1.7h0c0,1,.8,1.8,1.8,1.8"/>
  <path class="st0" d="M25.2,18.3c0-2.8-.6-4.6-3.7-4.6-1.2-.1-2.3.4-2.9,1.4h0v-1.4h-2.8v10.3h2.9v-5.1c0-1.3.2-2.6,1.9-2.6s1.7,1.5,1.7,2.7v5h3v-5.7Z"/>
</svg>