<svg width="28" height="265" viewBox="0 0 28 265" fill="none" xmlns="http://www.w3.org/2000/svg">
<path d="M16.526 11.4331L16.526 1.51111L11.658 1.51111L11.658 11.4331L6.08204 11.4331L6.08204 0.576113L1.13804 0.576113L1.13804 16.5761L27.338 16.5761L27.338 0.391114L22.397 0.391114L22.397 11.4331L16.526 11.4331ZM27.341 27.9421L1.13804 19.1071L1.13804 24.7591L21.286 31.1181L1.13804 37.5191L1.13804 43.1371L27.338 34.3431L27.341 27.9421ZM27.341 45.6811L1.13804 45.6811L1.13804 50.8441L27.338 50.8441L27.341 45.6811ZM1.13803 73.0051L6.08203 73.0051L6.08203 65.9631L27.341 65.9631L27.341 60.8001L6.08203 60.8001L6.08203 53.7251L1.13804 53.7251L1.13803 73.0051ZM7.09303 84.0811L17.799 80.2991L17.799 87.6771L7.09303 84.0811ZM27.309 71.6911L1.13803 80.9391L1.13803 87.3391L27.338 96.5031L27.338 90.9291L22.621 89.3621L22.621 78.5981L27.338 76.9131L27.309 71.6911ZM16.526 109.232L16.526 99.3181L11.658 99.3181L11.658 109.232L6.08203 109.232L6.08203 98.3831L1.13803 98.3831L1.13803 114.383L27.338 114.383L27.338 98.1911L22.397 98.1911L22.397 109.233L16.526 109.232ZM5.96403 126.92C5.95841 126.442 6.05641 125.968 6.25131 125.532C6.44621 125.095 6.73337 124.706 7.09303 124.391C7.83265 123.704 8.81274 123.335 9.82203 123.363C10.8407 123.34 11.8284 123.715 12.576 124.407C12.9378 124.72 13.2269 125.109 13.4233 125.545C13.6196 125.982 13.7185 126.456 13.713 126.934L13.713 132.249L5.96403 132.249L5.96403 126.92ZM27.341 117.47L17.461 123.231C16.7852 121.74 15.702 120.47 14.336 119.567C13.0061 118.658 11.4319 118.173 9.82103 118.177C8.67937 118.157 7.54572 118.371 6.48981 118.806C5.4339 119.24 4.47805 119.886 3.68103 120.704C2.8616 121.507 2.21478 122.469 1.78025 123.53C1.34571 124.592 1.13262 125.731 1.15403 126.878L1.15403 137.356L27.341 137.356L27.341 132.191L18.241 132.191L18.241 128.274L27.341 122.984L27.341 117.47ZM26.195 145.27C25.1441 143.32 23.58 141.695 21.672 140.57L19.145 145.026C20.2885 145.667 21.2174 146.631 21.815 147.797C22.6568 149.438 22.9739 151.299 22.7235 153.126C22.4731 154.953 21.6672 156.66 20.415 158.014C19.5967 158.8 18.628 159.413 17.5671 159.815C16.5062 160.218 15.3748 160.402 14.241 160.356C13.0989 160.4 11.9597 160.213 10.8916 159.807C9.82347 159.4 8.84847 158.782 8.02503 157.989C7.22732 157.182 6.60586 156.218 6.19997 155.158C5.79409 154.098 5.61261 152.966 5.66703 151.832C5.63816 150.428 5.9657 149.04 6.61903 147.797C7.25474 146.632 8.21031 145.674 9.37303 145.034L6.78703 140.578C4.89314 141.706 3.34151 143.328 2.29803 145.27C1.17985 147.275 0.599377 149.535 0.613034 151.831C0.555953 153.641 0.873638 155.443 1.54615 157.125C2.21866 158.806 3.23148 160.331 4.52103 161.602C5.79462 162.873 7.31261 163.872 8.98326 164.539C10.6539 165.207 12.4425 165.528 14.241 165.485C16.0335 165.527 17.816 165.207 19.4819 164.545C21.1477 163.882 22.6627 162.889 23.936 161.627C25.2312 160.359 26.2488 158.836 26.9244 157.154C27.6001 155.472 27.919 153.668 27.861 151.856C27.8788 149.552 27.2982 147.282 26.176 145.269" fill="#30485E"/>
<path d="M26.196 179.9C25.1414 177.96 23.5777 176.343 21.673 175.225L19.146 179.681C20.3027 180.306 21.2469 181.261 21.858 182.425C22.6997 184.066 23.0169 185.927 22.7664 187.754C22.516 189.581 21.7102 191.288 20.458 192.642C19.6306 193.426 18.6538 194.035 17.5858 194.433C16.5178 194.831 15.3806 195.009 14.242 194.958C13.1018 195.005 11.9639 194.821 10.896 194.419C9.82809 194.017 8.85206 193.403 8.02601 192.616C7.23191 191.812 6.61261 190.852 6.20701 189.797C5.8014 188.742 5.61823 187.615 5.66901 186.486C5.65147 185.076 5.99356 183.684 6.66301 182.443C7.29887 181.279 8.25443 180.32 9.41701 179.681L6.83101 175.225C4.92283 176.349 3.35651 177.971 2.30001 179.917C1.18282 181.926 0.602473 184.189 0.615009 186.487C0.558955 188.297 0.877112 190.099 1.54956 191.78C2.22202 193.462 3.23428 194.986 4.52301 196.258C5.79869 197.524 7.31762 198.519 8.98817 199.182C10.6587 199.845 12.4463 200.163 14.243 200.116C16.0341 200.159 17.8154 199.839 19.4798 199.176C21.1443 198.513 22.6576 197.52 23.929 196.258C25.226 194.991 26.2453 193.468 26.9224 191.786C27.5995 190.104 27.9194 188.299 27.862 186.487C27.8804 184.183 27.3005 181.913 26.179 179.9M22.379 220.439L6.08201 220.439L6.08201 215.175C6.04288 214.143 6.22483 213.115 6.61564 212.159C7.00646 211.203 7.59712 210.342 8.34801 209.633C9.95617 208.172 12.0771 207.406 14.248 207.502C16.419 207.405 18.5403 208.171 20.148 209.633C20.8973 210.343 21.4863 211.204 21.8755 212.16C22.2647 213.116 22.4453 214.144 22.405 215.175L22.379 220.439ZM1.13801 225.602L27.338 225.602L27.338 215.175C27.3765 213.493 27.0595 211.822 26.4078 210.271C25.7561 208.72 24.7843 207.325 23.556 206.175C22.3194 204.986 20.8593 204.055 19.2601 203.435C17.661 202.815 15.9546 202.518 14.24 202.562C12.5249 202.517 10.8179 202.813 9.21792 203.433C7.61795 204.052 6.15677 204.983 4.91901 206.171C3.69073 207.321 2.71895 208.716 2.06722 210.267C1.4155 211.818 1.09852 213.489 1.13701 215.171L1.13801 225.602ZM27.338 251.713L9.95601 246.778L27.341 241.817L27.341 235.925L1.13801 229.047L1.13801 234.025L20.509 238.995L1.13801 244.486L1.13801 248.959L20.569 254.425L1.13801 259.479L1.13801 264.87L27.338 257.93L27.338 251.713Z" fill="#30485E"/>
</svg>
